<svg width="32" height="32" viewBox="0 0 32 32" fill="none" xmlns="http://www.w3.org/2000/svg">
<path d="M5.33333 17.3333C6.06971 17.3333 6.66667 16.7364 6.66667 16C6.66667 15.2636 6.06971 14.6667 5.33333 14.6667C4.59695 14.6667 4 15.2636 4 16C4 16.7364 4.59695 17.3333 5.33333 17.3333Z" fill="#FBAE3C"/>
<path d="M26.7467 14.6667H10.5867C9.89446 14.6667 9.33333 15.2278 9.33333 15.92V16.08C9.33333 16.7722 9.89446 17.3333 10.5867 17.3333H26.7467C27.4389 17.3333 28 16.7722 28 16.08V15.92C28 15.2278 27.4389 14.6667 26.7467 14.6667Z" fill="#FBAE3C"/>
<path d="M26.7467 21.3333H5.25333C4.56114 21.3333 4 21.8945 4 22.5867V22.7467C4 23.4389 4.56114 24 5.25333 24H26.7467C27.4389 24 28 23.4389 28 22.7467V22.5867C28 21.8945 27.4389 21.3333 26.7467 21.3333Z" fill="#FBAE3C"/>
<path d="M26.7467 8H5.25333C4.56114 8 4 8.56114 4 9.25333V9.41333C4 10.1055 4.56114 10.6667 5.25333 10.6667H26.7467C27.4389 10.6667 28 10.1055 28 9.41333V9.25333C28 8.56114 27.4389 8 26.7467 8Z" fill="#FBAE3C"/>
</svg>
